<svg width="20" height="20" viewBox="0 0 20 20" fill="none" xmlns="http://www.w3.org/2000/svg">
<path d="M10.0038 11.879C10.5011 11.879 10.9781 11.6814 11.3297 11.3297C11.6814 10.9781 11.879 10.5011 11.879 10.0038C11.879 9.50641 11.6814 9.02943 11.3297 8.67776C10.9781 8.32608 10.5011 8.12852 10.0038 8.12852C9.50641 8.12852 9.02943 8.32608 8.67776 8.67776C8.32608 9.02943 8.12852 9.50641 8.12852 10.0038C8.12852 10.5011 8.32608 10.9781 8.67776 11.3297C9.02943 11.6814 9.50641 11.879 10.0038 11.879V11.879Z" fill="white"/>
<path d="M3.75297 10.0038C3.75297 8.34594 4.41153 6.75603 5.58378 5.58378C6.75603 4.41153 8.34594 3.75297 10.0038 3.75297C11.6616 3.75297 13.2515 4.41153 14.4237 5.58378C15.596 6.75603 16.2545 8.34594 16.2545 10.0038C16.2545 11.6616 15.596 13.2515 14.4237 14.4237C13.2515 15.596 11.6616 16.2545 10.0038 16.2545C8.34594 16.2545 6.75603 15.596 5.58378 14.4237C4.41153 13.2515 3.75297 11.6616 3.75297 10.0038V10.0038ZM10.0038 5.6282C9.42915 5.6282 8.86017 5.74138 8.3293 5.96127C7.79844 6.18117 7.31608 6.50347 6.90977 6.90977C6.50346 7.31608 6.18116 7.79844 5.96127 8.3293C5.74138 8.86017 5.6282 9.42915 5.6282 10.0038C5.6282 10.5784 5.74138 11.1473 5.96127 11.6782C6.18116 12.2091 6.50346 12.6914 6.90977 13.0977C7.31608 13.504 7.79844 13.8263 8.3293 14.0462C8.86017 14.2661 9.42915 14.3793 10.0038 14.3793C11.1642 14.3793 12.2772 13.9183 13.0977 13.0977C13.9183 12.2772 14.3793 11.1642 14.3793 10.0038C14.3793 8.84328 13.9183 7.73035 13.0977 6.90977C12.2772 6.0892 11.1642 5.6282 10.0038 5.6282Z" fill="white"/>
<path d="M0 10C0 7.34783 1.05357 4.8043 2.92893 2.92893C4.8043 1.05357 7.34783 0 10 0C12.6522 0 15.1957 1.05357 17.0711 2.92893C18.9464 4.8043 20 7.34783 20 10C20 12.6522 18.9464 15.1957 17.0711 17.0711C15.1957 18.9464 12.6522 20 10 20C7.34783 20 4.8043 18.9464 2.92893 17.0711C1.05357 15.1957 0 12.6522 0 10V10ZM10.0013 1.87523C8.9223 1.85631 7.85038 2.05247 6.84806 2.45228C5.84574 2.85209 4.93309 3.44753 4.16337 4.20386C3.39366 4.9602 2.78229 5.86226 2.36497 6.85742C1.94764 7.85257 1.7327 8.92088 1.7327 10C1.7327 11.0791 1.94764 12.1474 2.36497 13.1426C2.78229 14.1377 3.39366 15.0398 4.16337 15.7961C4.93309 16.5525 5.84574 17.1479 6.84806 17.5477C7.85038 17.9475 8.9223 18.1437 10.0013 18.1248C12.1314 18.0874 14.1617 17.215 15.6549 15.6953C17.148 14.1757 17.9847 12.1305 17.9847 10C17.9847 7.86953 17.148 5.82428 15.6549 4.30466C14.1617 2.78503 12.1314 1.9126 10.0013 1.87523V1.87523Z" fill="white"/>
</svg>
